name Walk4.mot
datacolumns 19
datarows 10
range 2.22500000 2.27000000
endheader

                time	   L_ground_force_vx	   L_ground_force_vy	   L_ground_force_vz	   L_ground_force_px	   L_ground_force_py	   L_ground_force_pz	   R_ground_force_vx	   R_ground_force_vy	   R_ground_force_vz	   R_ground_force_px	   R_ground_force_py	   R_ground_force_pz	   L_ground_torque_x	   L_ground_torque_y	   L_ground_torque_z	   R_ground_torque_x	   R_ground_torque_y	   R_ground_torque_z	
          2.22500000	         27.56117083	        941.96574379	         63.24817092	         -0.25196167	          0.00000000	         -0.04888848	         -0.06406846	          0.54397748	          0.04519076	          0.00027368	          0.00000000	          0.00012117	          0.00000000	         -0.78321832	          0.00000000	          0.00000000	          0.01067507	          0.00000000	
          2.23000000	         30.48912114	        944.41035099	         63.42436937	         -0.25077693	          0.00000000	         -0.04912411	         -0.07782120	          0.68851062	          0.05402327	          0.00031389	          0.00000000	          0.00013904	          0.00000000	         -0.79580627	          0.00000000	          0.00000000	          0.01292483	          0.00000000	
          2.23500000	         33.49903015	        946.50360988	         63.58942025	         -0.24956304	          0.00000000	         -0.04937597	         -0.08966940	          0.82897997	          0.06113394	          0.00033788	          0.00000000	          0.00014975	          0.00000000	         -0.80684217	          0.00000000	          0.00000000	          0.01483907	          0.00000000	
          2.24000000	         36.58248114	        948.19678769	         63.75529682	         -0.24831215	          0.00000000	         -0.04964775	         -0.09708649	          0.94578853	          0.06468263	          0.00033362	          0.00000000	          0.00014799	          0.00000000	         -0.81609507	          0.00000000	          0.00000000	          0.01599402	          0.00000000	
          2.24500000	         39.72534391	        949.45394982	         63.93126710	         -0.24701382	          0.00000000	         -0.04994361	         -0.09667907	          1.01129514	          0.06223921	          0.00028584	          0.00000000	          0.00012700	          0.00000000	         -0.82355767	          0.00000000	          0.00000000	          0.01582251	          0.00000000	
          2.25000000	         42.90722702	        950.25890585	         64.12251075	         -0.24565527	          0.00000000	         -0.05026807	         -0.08412049	          0.98872372	          0.05075315	          0.00017607	          0.00000000	          0.00007859	          0.00000000	         -0.82914778	          0.00000000	          0.00000000	          0.01360370	          0.00000000	
          2.25500000	         46.10113779	        950.61295508	         64.32975160	         -0.24422245	          0.00000000	         -0.05062480	         -0.05416248	          0.83158892	          0.02658272	         -0.00001681	          0.00000000	         -0.00000658	          0.00000000	         -0.83281551	          0.00000000	          0.00000000	          0.00846601	          0.00000000	
          2.26000000	         49.27582449	        950.53192288	         64.55008503	         -0.24270088	          0.00000000	         -0.05101709	         -0.00076681	          0.48399783	         -0.01438655	         -0.00031551	          0.00000000	         -0.00013859	          0.00000000	         -0.83445595	          0.00000000	          0.00000000	         -0.00058968	          0.00000000	
          2.26500000	         52.39848761	        950.05076024	         64.77875086	         -0.24107659	          0.00000000	         -0.05144824	          0.08259187	         -0.11771918	         -0.07649893	         -0.00074238	          0.00000000	         -0.00032735	          0.00000000	         -0.83337151	          0.00000000	          0.00000000	         -0.01463823	          0.00000000	
          2.27000000	         55.43604622	        949.22388731	         65.01188005	         -0.23933742	          0.00000000	         -0.05191998	          0.20239382	         -1.04150640	         -0.16392125	         -0.00131649	          0.00000000	         -0.00058132	          0.00000000	         -0.82883964	          0.00000000	          0.00000000	         -0.03473994	          0.00000000	
